<svg preserveAspectRatio="none" overflow="visible" style="display: block;" width="99.1198" height="19.5865" viewBox="0 0 99.1198 19.5865" fill="none" xmlns="http://www.w3.org/2000/svg">
<g id="logotype">
<path id="Vector" d="M94.2 4.80998C97.5184 4.80998 99.1197 7.12772 99.1197 9.81226V14.8543H95.647V10.4105C95.647 9.1938 95.203 8.18955 93.9299 8.18955C92.6568 8.18955 92.2324 9.1938 92.2324 10.4105V14.8537H88.7597V10.4105C88.7597 9.1938 88.3353 8.18955 87.0616 8.18955C85.7884 8.18955 85.3445 9.1938 85.3445 10.4105V14.8537H81.8723V9.81167C81.8723 7.12713 83.4731 4.80939 86.7915 4.80939C88.6053 4.80939 89.917 5.524 90.5153 6.70216C91.1516 5.524 92.541 4.80879 94.2 4.80879V4.80998ZM75.6319 11.7638C76.7507 11.7638 77.2333 10.74 77.2333 9.52262V5.19577H80.7054V9.94759C80.7054 12.787 79.0465 15.144 75.6319 15.144C72.2168 15.144 70.5578 12.7876 70.5578 9.94759V5.19577H74.0306V9.52262C74.0306 10.7394 74.5125 11.7638 75.6319 11.7638ZM65.4517 15.1629C63.2716 15.1629 61.8632 14.4098 61.0334 12.942L63.5417 11.5317C63.8889 12.1496 64.4094 12.4588 65.2778 12.4588C65.9918 12.4588 66.3194 12.2078 66.3194 11.8985C66.3194 10.7204 61.2263 11.9181 61.2263 8.17115C61.2263 6.35494 62.7695 4.88714 65.3935 4.88714C67.6893 4.88714 68.9434 6.00713 69.5031 7.08914L66.9949 8.51836C66.783 7.93908 66.1265 7.59127 65.4707 7.59127C64.9691 7.59127 64.6991 7.80375 64.6991 8.0934C64.6991 9.29114 69.7922 8.19014 69.7922 11.8214C69.7922 13.8495 67.805 15.1629 65.4517 15.1629ZM53.3187 19.2969H49.846V10.0058C49.846 7.04997 52.0646 4.90613 55.1515 4.90613C58.1613 4.90613 60.4571 7.20488 60.4571 10.0058C60.4571 13.0963 58.4118 15.144 55.3444 15.144C54.6304 15.144 53.917 14.9315 53.3187 14.6027V19.2969ZM55.1515 11.8795C56.2514 11.8795 56.9844 11.0296 56.9844 10.0247C56.9844 9.0015 56.2514 8.17055 55.1515 8.17055C54.0517 8.17055 53.3187 9.0015 53.3187 10.0253C53.3187 11.0296 54.0517 11.8795 55.1515 11.8795ZM46.3673 4.17253C45.2289 4.17253 44.284 3.22584 44.284 2.08626C44.284 0.946683 45.2289 0 46.3673 0C47.5057 0 48.4512 0.946683 48.4512 2.08626C48.4512 3.22584 47.5057 4.17253 46.3673 4.17253ZM44.6312 5.19577H48.1039V14.8543H44.6312V5.19577ZM37.9682 15.144C34.9584 15.144 32.6626 12.8262 32.6626 10.0058C32.6626 7.20488 34.9584 4.88714 37.9682 4.88714C40.978 4.88714 43.2738 7.20488 43.2738 10.0058C43.2738 12.8262 40.978 15.144 37.9682 15.144ZM37.9682 11.8795C39.068 11.8795 39.801 11.0296 39.801 10.0247C39.801 9.0015 39.068 8.15156 37.9682 8.15156C36.8684 8.15156 36.1354 9.0015 36.1354 10.0247C36.1354 11.0296 36.8684 11.8795 37.9682 11.8795ZM26.1053 19.5865C23.7134 19.5865 21.9767 18.5241 21.0894 16.6308L23.9638 15.0858C24.2725 15.7428 24.8512 16.4189 26.0471 16.4189C27.3019 16.4189 28.131 15.6265 28.2278 14.2359C27.7648 14.6418 27.0312 14.9505 25.932 14.9505C23.2498 14.9505 21.0888 12.8838 21.0888 9.98617C21.0888 7.18589 23.3851 4.90613 26.3949 4.90613C29.4819 4.90613 31.7005 7.05056 31.7005 10.0058V13.8305C31.7005 17.3074 29.2884 19.5865 26.1053 19.5865ZM26.3368 11.6866C27.3784 11.6866 28.1696 10.9714 28.1696 9.90901C28.1696 8.86617 27.379 8.17055 26.3368 8.17055C25.3141 8.17055 24.5039 8.86617 24.5039 9.9096C24.5039 10.972 25.3141 11.686 26.3368 11.686V11.6866ZM15.1986 15.144C12.1888 15.144 9.89239 12.8262 9.89239 10.0058C9.89239 7.20488 12.1888 4.88714 15.1986 4.88714C18.2078 4.88714 20.5041 7.20488 20.5041 10.0058C20.5041 12.8262 18.2084 15.144 15.1986 15.144ZM15.1986 11.8795C16.2984 11.8795 17.0314 11.0296 17.0314 10.0247C17.0314 9.0015 16.2984 8.15156 15.1986 8.15156C14.0987 8.15156 13.3657 9.0015 13.3657 10.0247C13.3657 11.0296 14.0987 11.8795 15.1986 11.8795ZM3.5689 1.81621V11.5703H9.31844V14.8543H3.08636C0.88733 14.8543 0 13.6951 0 11.8599V1.81621H3.5689Z" fill="#999999"/>
</g>
</svg>
